{"title":"Furious.7.(2015).720p.HDCAM.x264-LTT","uid":11805601,"size":1551678397,"categoryP":"video","categoryS":"hd___movies","magnet":"?xt=urn:btih:88c690e4c68fe354f4dfe4b91d1b3d5d4bfea0c4&amp;dn=Furious.7.%282015%29.720p.HDCAM.x264-LTT&amp;tr=udp%3A%2F%2Ftracker.openbittorrent.com%3A80&amp;tr=udp%3A%2F%2Fopen.demonii.com%3A1337&amp;tr=udp%3A%2F%2Ftracker.coppersurfer.tk%3A6969&amp;tr=udp%3A%2F%2Fexodus.desync.com%3A6969","seeders":2,"leechers":1,"uploader":"ltt99","files":3,"time":1428570511,"description":"Furious.7.(2015).720p.HDCAM.x264-LTT &lt;a href=&quot;\nhttp://www.imdb.com/title/tt2820852/&quot; rel=&quot;nofollow&quot; target=&quot;_NEW&quot;&gt;\nhttp://www.imdb.com/title/tt2820852/&lt;/a&gt;\nAction | Crime | Thriller\n*****************************************************************\nGeneral:\n\nFormat                                   : MPEG-4\nFormat profile                           : Base Media / Version 2\nCodec ID                                 : mp42\nFile size                                : 1.43 GiB\nDuration                                 : 2h 6mn\nOverall bit rate                         : 1 628 Kbps\nEncoded date                             : UTC 2015-04-06 00:52:17\nTagged date                              : UTC 2015-04-06 02:09:58\n\nVideo\nID                                       : 1\nFormat                                   : AVC\nFormat/Info                              : Advanced Video Codec\nCodec ID                                 : avc1\nCodec ID/Info                            : Advanced Video Coding\nDuration                                 : 2h 6mn\nDuration_FirstFrame                      : 240ms\nBit rate mode                            : Variable\nBit rate                                 : 1 496 Kbps\nWidth                                    : 720 pixels\nHeight                                   : 336 pixels\nDisplay aspect ratio                     : 2.143\nFrame rate mode                          : Constant\nFrame rate                               : 25.000 fps\nBits/(Pixel*Frame)                       : 0.247\nStream size                              : 1.32 GiB (92%)\nEncoded date                             : UTC 2015-04-06 00:52:18\nTagged date                              : UTC 2015-04-06 02:09:58\n\nAudio\nID                                       : 2\nFormat                                   : AC-3\nFormat/Info                              : Audio Coding 3\nMode extension                           : CM (complete main)\nFormat settings, Endianness              : Big\nCodec ID                                 : ac-3\nDuration                                 : 2h 6mn\nDuration_FirstFrame                      : 320ms\nBit rate mode                            : Constant\nBit rate                                 : 128 Kbps\nChannel(s)                               : 2 channels\nChannel positions                        : Front: L R\nSampling rate                            : 44.1 KHz\nBit depth                                : 16 bits\nCompression mode                         : Lossy\nStream size                              : 116 MiB (8%)\nEncoded date                             : UTC 2015-04-06 00:52:18\nTagged date                              : UTC 2015-04-06 02:09:58","torrent":{"xt":"urn:btih:88c690e4c68fe354f4dfe4b91d1b3d5d4bfea0c4","amp;dn":"Furious.7.%282015%29.720p.HDCAM.x264-LTT","amp;tr":["udp%3A%2F%2Ftracker.openbittorrent.com%3A80","udp%3A%2F%2Fopen.demonii.com%3A1337","udp%3A%2F%2Ftracker.coppersurfer.tk%3A6969","udp%3A%2F%2Fexodus.desync.com%3A6969"],"infoHash":"88c690e4c68fe354f4dfe4b91d1b3d5d4bfea0c4","infoHashBuffer":{"type":"Buffer","data":[136,198,144,228,198,143,227,84,244,223,228,185,29,27,61,93,75,254,160,196]},"announce":[],"urlList":[]}}